<svg width="292" height="140" viewBox="0 0 292 140" fill="currentColor" xmlns="http://www.w3.org/2000/svg">
<path d="M68.3896 47.666C71.6117 47.666 74.1432 48.1263 75.9844 49.0469C77.8255 49.9017 79.2064 51.0853 80.127 52.5977C81.1133 54.11 81.738 55.8854 82.001 57.9238C82.264 59.8965 82.3955 62.0007 82.3955 64.2363V122.627C82.3955 124.928 82.264 127.065 82.001 129.038C81.738 131.011 81.1462 132.753 80.2256 134.266C79.305 135.712 77.9242 136.863 76.083 137.718C74.2419 138.573 71.7432 139 68.5869 139C65.4964 139 63.0306 138.605 61.1895 137.816C59.3483 136.962 57.9346 135.844 56.9482 134.463C55.9619 133.082 55.3044 131.438 54.9756 129.531C54.7126 127.624 54.5811 125.586 54.5811 123.416V105.859H20.8486C16.7718 105.859 13.4183 105.531 10.7881 104.873C8.15788 104.215 6.05371 103.361 4.47559 102.309C2.96322 101.191 1.87826 99.9085 1.2207 98.4619C0.628906 97.0153 0.333008 95.5358 0.333008 94.0234C0.333008 93.2344 0.398763 92.4453 0.530273 91.6562C0.727539 90.8672 0.924805 90.0781 1.12207 89.2891L21.0459 20.0488C21.7035 17.6159 22.3281 15.2487 22.9199 12.9473C23.5775 10.6458 24.4323 8.60742 25.4844 6.83203C26.6022 5.05664 28.1146 3.6429 30.0215 2.59082C31.9284 1.47298 34.5257 0.914062 37.8135 0.914062C40.1807 0.914062 42.1204 1.24284 43.6328 1.90039C45.2109 2.55794 46.4603 3.44564 47.3809 4.56348C48.3014 5.61556 48.9261 6.86491 49.2549 8.31152C49.6494 9.69238 49.8467 11.1719 49.8467 12.75C49.8467 14.3281 49.7152 15.9391 49.4521 17.583C49.1891 19.1611 48.8604 20.6406 48.4658 22.0215C48.137 23.4023 47.7754 24.6517 47.3809 25.7695C47.0521 26.8216 46.8219 27.6107 46.6904 28.1367C46.6904 28.1367 46.4932 28.86 46.0986 30.3066C45.7041 31.6875 45.1781 33.5286 44.5205 35.8301C43.863 38.0658 43.1396 40.6631 42.3506 43.6221C41.5615 46.5153 40.7396 49.4743 39.8848 52.499C37.8464 59.6006 35.5778 67.6556 33.0791 76.6641L33.8682 77.4531H54.5811V64.0391C54.5811 61.8034 54.7126 59.6992 54.9756 57.7266C55.2386 55.7539 55.8304 54.0443 56.751 52.5977C57.6715 51.0853 59.0524 49.9017 60.8936 49.0469C62.7347 48.1263 65.2334 47.666 68.3896 47.666ZM101.925 40.3672C101.925 33.9889 102.812 28.5641 104.588 24.0928C106.429 19.5557 108.763 15.8076 111.591 12.8486C114.418 9.88965 117.542 7.55534 120.961 5.8457C124.38 4.13607 127.701 2.85384 130.923 1.99902C134.211 1.14421 137.137 0.618164 139.701 0.420898C142.331 0.223633 144.271 0.125 145.521 0.125H148.874C150.123 0.125 152.063 0.223633 154.693 0.420898C157.324 0.618164 160.217 1.14421 163.373 1.99902C166.595 2.85384 169.883 4.13607 173.236 5.8457C176.656 7.55534 179.746 9.88965 182.508 12.8486C185.335 15.8076 187.637 19.5557 189.412 24.0928C191.188 28.5641 192.075 33.9889 192.075 40.3672V98.5605C192.075 105.136 191.188 110.725 189.412 115.328C187.637 119.931 185.335 123.778 182.508 126.868C179.746 129.893 176.656 132.26 173.236 133.97C169.883 135.679 166.595 136.994 163.373 137.915C160.217 138.77 157.324 139.296 154.693 139.493C152.063 139.69 150.123 139.789 148.874 139.789H145.521C144.271 139.789 142.331 139.69 139.701 139.493C137.137 139.296 134.211 138.77 130.923 137.915C127.701 136.994 124.38 135.679 120.961 133.97C117.542 132.26 114.418 129.893 111.591 126.868C108.763 123.778 106.429 119.931 104.588 115.328C102.812 110.725 101.925 105.136 101.925 98.5605V40.3672ZM134.276 103.689C134.474 105.991 135.098 108.029 136.15 109.805C137.005 111.317 138.287 112.731 139.997 114.046C141.772 115.295 144.205 115.92 147.296 115.92C150.321 115.92 152.688 115.295 154.397 114.046C156.107 112.731 157.389 111.317 158.244 109.805C159.23 108.029 159.855 105.991 160.118 103.689V37.0137C159.855 34.7122 159.23 32.6738 158.244 30.8984C157.389 29.3861 156.107 28.0052 154.397 26.7559C152.688 25.4408 150.321 24.7832 147.296 24.7832C144.205 24.7832 141.772 25.4408 139.997 26.7559C138.287 28.0052 137.005 29.3861 136.15 30.8984C135.098 32.6738 134.474 34.7122 134.276 37.0137V103.689ZM277.491 47.666C280.713 47.666 283.245 48.1263 285.086 49.0469C286.927 49.9017 288.308 51.0853 289.229 52.5977C290.215 54.11 290.84 55.8854 291.103 57.9238C291.366 59.8965 291.497 62.0007 291.497 64.2363V122.627C291.497 124.928 291.366 127.065 291.103 129.038C290.84 131.011 290.248 132.753 289.327 134.266C288.407 135.712 287.026 136.863 285.185 137.718C283.343 138.573 280.845 139 277.688 139C274.598 139 272.132 138.605 270.291 137.816C268.45 136.962 267.036 135.844 266.05 134.463C265.063 133.082 264.406 131.438 264.077 129.531C263.814 127.624 263.683 125.586 263.683 123.416V105.859H229.95C225.873 105.859 222.52 105.531 219.89 104.873C217.259 104.215 215.155 103.361 213.577 102.309C212.065 101.191 210.98 99.9085 210.322 98.4619C209.73 97.0153 209.435 95.5358 209.435 94.0234C209.435 93.2344 209.5 92.4453 209.632 91.6562C209.829 90.8672 210.026 90.0781 210.224 89.2891L230.147 20.0488C230.805 17.6159 231.43 15.2487 232.021 12.9473C232.679 10.6458 233.534 8.60742 234.586 6.83203C235.704 5.05664 237.216 3.6429 239.123 2.59082C241.03 1.47298 243.627 0.914062 246.915 0.914062C249.282 0.914062 251.222 1.24284 252.734 1.90039C254.312 2.55794 255.562 3.44564 256.482 4.56348C257.403 5.61556 258.028 6.86491 258.356 8.31152C258.751 9.69238 258.948 11.1719 258.948 12.75C258.948 14.3281 258.817 15.9391 258.554 17.583C258.291 19.1611 257.962 20.6406 257.567 22.0215C257.239 23.4023 256.877 24.6517 256.482 25.7695C256.154 26.8216 255.924 27.6107 255.792 28.1367C255.792 28.1367 255.595 28.86 255.2 30.3066C254.806 31.6875 254.28 33.5286 253.622 35.8301C252.965 38.0658 252.241 40.6631 251.452 43.6221C250.663 46.5153 249.841 49.4743 248.986 52.499C246.948 59.6006 244.679 67.6556 242.181 76.6641L242.97 77.4531H263.683V64.0391C263.683 61.8034 263.814 59.6992 264.077 57.7266C264.34 55.7539 264.932 54.0443 265.853 52.5977C266.773 51.0853 268.154 49.9017 269.995 49.0469C271.836 48.1263 274.335 47.666 277.491 47.666Z" fill="current"/>
</svg>
