<svg width="current" height='current'  viewBox="0 0 635 237" fill="currentColor" xmlns="http://www.w3.org/2000/svg">
<path d="M457.76 142.387L444.645 135.292C444.294 135.1 443.9 135 443.5 135C443.1 135 442.706 135.1 442.355 135.292L429.24 142.39C428.865 142.593 428.553 142.891 428.335 143.254C428.117 143.617 428.001 144.031 428 144.453V158.547C428.001 158.969 428.117 159.383 428.335 159.746C428.553 160.109 428.865 160.407 429.24 160.61L442.355 167.708C442.706 167.9 443.1 168 443.5 168C443.9 168 444.294 167.9 444.645 167.708L457.76 160.61C458.135 160.407 458.447 160.109 458.665 159.746C458.883 159.383 458.999 158.969 459 158.547V144.455C459 144.032 458.885 143.617 458.666 143.253C458.448 142.889 458.135 142.59 457.76 142.387ZM443.5 137.355L455.474 143.839L443.5 150.323L431.526 143.839L443.5 137.355ZM430.385 145.902L442.308 152.353V164.995L430.385 158.548V145.902ZM444.692 164.995V152.359L456.615 145.902V158.542L444.692 164.995Z" fill="current"/>
<path d="M65.3008 75.9C63.7675 82.7 60.3675 88.1333 55.1008 92.2C49.8341 96.3333 43.5008 98.4 36.1008 98.4C30.1674 98.4 24.8341 97.0667 20.1008 94.4C15.3674 91.8 11.6674 88.1667 9.00078 83.5C6.33411 78.8333 5.00078 73.5667 5.00078 67.7C5.00078 61.8333 6.33411 56.5667 9.00078 51.9C11.6674 47.2333 15.3674 43.6 20.1008 41C24.8341 38.3333 30.1674 37 36.1008 37C41.1008 37 45.6674 38 49.8008 40C53.9341 41.9333 57.3341 44.6 60.0008 48C62.6675 51.4 64.3341 55.1667 65.0008 59.3H47.0008C46.2674 57.2333 44.9341 55.6 43.0008 54.4C41.1341 53.1333 38.8341 52.5 36.1008 52.5C31.9674 52.5 28.6341 53.9333 26.1008 56.8C23.6341 59.6 22.4008 63.2333 22.4008 67.7C22.4008 72.1667 23.6341 75.8333 26.1008 78.7C28.6341 81.5 31.9674 82.9 36.1008 82.9C38.8341 82.9 41.1675 82.2667 43.1008 81C45.1008 79.7333 46.5008 78.0333 47.3008 75.9H65.3008ZM102.995 37C108.929 37 114.262 38.3333 118.995 41C123.729 43.6 127.429 47.2333 130.095 51.9C132.762 56.5667 134.095 61.8333 134.095 67.7C134.095 73.5667 132.762 78.8333 130.095 83.5C127.429 88.1667 123.729 91.8 118.995 94.4C114.262 97.0667 108.929 98.4 102.995 98.4C97.062 98.4 91.7286 97.0667 86.9953 94.4C82.262 91.8 78.562 88.1667 75.8953 83.5C73.2286 78.8333 71.8953 73.5667 71.8953 67.7C71.8953 61.8333 73.2286 56.5667 75.8953 51.9C78.562 47.2333 82.262 43.6 86.9953 41C91.7286 38.3333 97.062 37 102.995 37ZM102.995 52.2C98.862 52.2 95.4953 53.6667 92.8953 56.6C90.362 59.4667 89.0953 63.1667 89.0953 67.7C89.0953 72.2333 90.362 75.9667 92.8953 78.9C95.4953 81.7667 98.862 83.2 102.995 83.2C107.129 83.2 110.462 81.7667 112.995 78.9C115.595 75.9667 116.895 72.2333 116.895 67.7C116.895 63.1667 115.595 59.4667 112.995 56.6C110.462 53.6667 107.129 52.2 102.995 52.2ZM144.524 38.4H162.324V44C164.124 41.6 166.158 39.8333 168.424 38.7C170.758 37.5667 173.524 37 176.724 37C180.391 37 183.724 37.7333 186.724 39.2C189.724 40.6 192.191 42.6667 194.124 45.4C196.324 42.6 199.024 40.5 202.224 39.1C205.424 37.7 209.224 37 213.624 37C218.091 37 222.024 38.0667 225.424 40.2C228.824 42.2667 231.458 45.2667 233.324 49.2C235.191 53.1333 236.124 57.7667 236.124 63.1V97H218.324V66.1C218.324 61.6333 217.491 58.2333 215.824 55.9C214.158 53.5 211.691 52.3 208.424 52.3C205.558 52.3 203.324 53.4 201.724 55.6C200.191 57.8 199.358 61 199.224 65.2V97H181.424V66.1C181.424 61.6333 180.591 58.2333 178.924 55.9C177.258 53.5 174.791 52.3 171.524 52.3C168.658 52.3 166.424 53.4 164.824 55.6C163.291 57.8 162.458 61 162.324 65.2V97H144.524V38.4ZM248.138 38.4H265.938V44.4C269.604 39.4667 275.204 37 282.738 37C288.271 37 293.204 38.3333 297.538 41C301.871 43.6 305.238 47.2333 307.638 51.9C310.038 56.5667 311.238 61.8333 311.238 67.7C311.238 73.5667 310.038 78.8333 307.638 83.5C305.238 88.1667 301.871 91.8 297.538 94.4C293.204 97.0667 288.271 98.4 282.738 98.4C275.204 98.4 269.604 95.9333 265.938 91V121.4H248.138V38.4ZM279.938 83.2C284.138 83.2 287.504 81.7667 290.038 78.9C292.571 75.9667 293.838 72.2333 293.838 67.7C293.838 63.1667 292.571 59.4667 290.038 56.6C287.504 53.6667 284.138 52.2 279.938 52.2C275.604 52.2 272.138 53.6667 269.538 56.6C266.938 59.4667 265.638 63.1667 265.638 67.7C265.638 72.2333 266.938 75.9667 269.538 78.9C272.138 81.7667 275.604 83.2 279.938 83.2ZM349.773 37C355.706 37 361.039 38.3333 365.773 41C370.506 43.6 374.206 47.2333 376.873 51.9C379.539 56.5667 380.873 61.8333 380.873 67.7C380.873 73.5667 379.539 78.8333 376.873 83.5C374.206 88.1667 370.506 91.8 365.773 94.4C361.039 97.0667 355.706 98.4 349.773 98.4C343.839 98.4 338.506 97.0667 333.773 94.4C329.039 91.8 325.339 88.1667 322.673 83.5C320.006 78.8333 318.673 73.5667 318.673 67.7C318.673 61.8333 320.006 56.5667 322.673 51.9C325.339 47.2333 329.039 43.6 333.773 41C338.506 38.3333 343.839 37 349.773 37ZM349.773 52.2C345.639 52.2 342.273 53.6667 339.673 56.6C337.139 59.4667 335.873 63.1667 335.873 67.7C335.873 72.2333 337.139 75.9667 339.673 78.9C342.273 81.7667 345.639 83.2 349.773 83.2C353.906 83.2 357.239 81.7667 359.773 78.9C362.373 75.9667 363.673 72.2333 363.673 67.7C363.673 63.1667 362.373 59.4667 359.773 56.6C357.239 53.6667 353.906 52.2 349.773 52.2ZM391.302 38.4H409.102V44.4C412.768 39.4667 418.235 37 425.502 37C430.035 37 434.035 38.0667 437.502 40.2C440.968 42.2667 443.635 45.2667 445.502 49.2C447.435 53.1333 448.402 57.7667 448.402 63.1V97H430.602V66.1C430.602 61.6333 429.702 58.2333 427.902 55.9C426.168 53.5 423.635 52.3 420.302 52.3C416.835 52.3 414.102 53.6 412.102 56.2C410.102 58.8 409.102 62.3667 409.102 66.9V97H391.302V38.4ZM487.942 98.4C482.076 98.4 476.809 97.0667 472.142 94.4C467.542 91.8 463.942 88.1667 461.342 83.5C458.742 78.8333 457.442 73.5667 457.442 67.7C457.442 61.8333 458.742 56.5667 461.342 51.9C463.942 47.2333 467.542 43.6 472.142 41C476.809 38.3333 482.076 37 487.942 37C493.809 37 499.042 38.3333 503.642 41C508.309 43.6 511.942 47.2333 514.542 51.9C517.142 56.5667 518.442 61.8333 518.442 67.7C518.442 69.6333 518.309 71.5333 518.042 73.4H475.142C475.809 76.8 477.276 79.4333 479.542 81.3C481.809 83.1667 484.609 84.1 487.942 84.1C490.476 84.1 492.709 83.7 494.642 82.9C496.642 82.0333 498.009 80.9 498.742 79.5H516.642C515.642 83.2333 513.776 86.5 511.042 89.3C508.309 92.1667 504.942 94.4 500.942 96C496.942 97.6 492.609 98.4 487.942 98.4ZM501.042 61.9C500.309 58.3667 498.809 55.7 496.542 53.9C494.276 52.0333 491.409 51.1 487.942 51.1C484.476 51.1 481.642 52.0333 479.442 53.9C477.242 55.7 475.776 58.3667 475.042 61.9H501.042ZM528.899 38.4H546.699V44.4C550.366 39.4667 555.833 37 563.099 37C567.633 37 571.633 38.0667 575.099 40.2C578.566 42.2667 581.233 45.2667 583.099 49.2C585.033 53.1333 585.999 57.7667 585.999 63.1V97H568.199V66.1C568.199 61.6333 567.299 58.2333 565.499 55.9C563.766 53.5 561.233 52.3 557.899 52.3C554.433 52.3 551.699 53.6 549.699 56.2C547.699 58.8 546.699 62.3667 546.699 66.9V97H528.899V38.4ZM633.061 53.7H621.461V97H603.661V53.7H592.061V38.4H603.661V21H621.461V38.4H633.061V53.7Z" fill="current"/>
<path d="M40.8195 168.7H29.6195V212H11.8195V168.7H2.01953V153.4H11.8195V147.6C11.8195 141.667 13.5862 136.867 17.1195 133.2C20.6529 129.467 25.5195 127.6 31.7195 127.6C34.9195 127.6 37.6195 127.8 39.8195 128.2V143.1C38.9529 142.967 37.4195 142.9 35.2195 142.9C33.4862 142.9 32.1195 143.433 31.1195 144.5C30.1195 145.5 29.6195 146.867 29.6195 148.6V153.4H40.8195V168.7ZM73.5281 213.4C67.9948 213.4 63.0615 212.067 58.7281 209.4C54.3948 206.8 51.0281 203.167 48.6281 198.5C46.2281 193.833 45.0281 188.567 45.0281 182.7C45.0281 176.833 46.2281 171.567 48.6281 166.9C51.0281 162.233 54.3948 158.6 58.7281 156C63.0615 153.333 67.9948 152 73.5281 152C81.0615 152 86.6615 154.467 90.3281 159.4V153.4H108.128V212H90.3281V206C86.6615 210.933 81.0615 213.4 73.5281 213.4ZM76.3281 198.2C80.6615 198.2 84.1281 196.767 86.7281 193.9C89.3281 190.967 90.6281 187.233 90.6281 182.7C90.6281 178.167 89.3281 174.467 86.7281 171.6C84.1281 168.667 80.6615 167.2 76.3281 167.2C72.1281 167.2 68.7615 168.667 66.2281 171.6C63.6948 174.467 62.4281 178.167 62.4281 182.7C62.4281 187.233 63.6948 190.967 66.2281 193.9C68.7615 196.767 72.1281 198.2 76.3281 198.2ZM178.863 190.9C177.33 197.7 173.93 203.133 168.663 207.2C163.397 211.333 157.063 213.4 149.663 213.4C143.73 213.4 138.397 212.067 133.663 209.4C128.93 206.8 125.23 203.167 122.563 198.5C119.897 193.833 118.563 188.567 118.563 182.7C118.563 176.833 119.897 171.567 122.563 166.9C125.23 162.233 128.93 158.6 133.663 156C138.397 153.333 143.73 152 149.663 152C154.663 152 159.23 153 163.363 155C167.497 156.933 170.897 159.6 173.563 163C176.23 166.4 177.897 170.167 178.563 174.3H160.563C159.83 172.233 158.497 170.6 156.563 169.4C154.697 168.133 152.397 167.5 149.663 167.5C145.53 167.5 142.197 168.933 139.663 171.8C137.197 174.6 135.963 178.233 135.963 182.7C135.963 187.167 137.197 190.833 139.663 193.7C142.197 196.5 145.53 197.9 149.663 197.9C152.397 197.9 154.73 197.267 156.663 196C158.663 194.733 160.063 193.033 160.863 190.9H178.863ZM223.088 168.7H211.488V212H193.688V168.7H182.088V153.4H193.688V136H211.488V153.4H223.088V168.7ZM258.257 152C264.19 152 269.524 153.333 274.257 156C278.99 158.6 282.69 162.233 285.357 166.9C288.024 171.567 289.357 176.833 289.357 182.7C289.357 188.567 288.024 193.833 285.357 198.5C282.69 203.167 278.99 206.8 274.257 209.4C269.524 212.067 264.19 213.4 258.257 213.4C252.324 213.4 246.99 212.067 242.257 209.4C237.524 206.8 233.824 203.167 231.157 198.5C228.49 193.833 227.157 188.567 227.157 182.7C227.157 176.833 228.49 171.567 231.157 166.9C233.824 162.233 237.524 158.6 242.257 156C246.99 153.333 252.324 152 258.257 152ZM258.257 167.2C254.124 167.2 250.757 168.667 248.157 171.6C245.624 174.467 244.357 178.167 244.357 182.7C244.357 187.233 245.624 190.967 248.157 193.9C250.757 196.767 254.124 198.2 258.257 198.2C262.39 198.2 265.724 196.767 268.257 193.9C270.857 190.967 272.157 187.233 272.157 182.7C272.157 178.167 270.857 174.467 268.257 171.6C265.724 168.667 262.39 167.2 258.257 167.2ZM299.786 153.4H317.586V159.4C321.253 154.467 326.719 152 333.986 152C337.186 152 339.753 152.333 341.686 153L341.886 169.7C339.353 168.367 336.319 167.7 332.786 167.7C328.053 167.7 324.319 168.967 321.586 171.5C318.919 174.033 317.586 177.533 317.586 182V212H299.786V153.4ZM409.148 153.4L375.448 236.4H357.948L368.548 210.4L345.448 153.4H365.148L377.848 189.6L390.648 153.4H409.148Z" fill="current"/>
</svg>
