<svg width="112" height="100" viewBox="0 0 112 100" xmlns="http://www.w3.org/2000/svg">
  <path d="M34.657 8.13355L15.9727 12.9053C15.4719 13.031 15.0109 13.2817 14.6329 13.6339C14.2549 13.986 13.9724 14.4282 13.8116 14.9189L7.73503 33.2224C7.56141 33.745 7.53125 34.3044 7.64767 34.8423C7.7641 35.3801 8.02285 35.8766 8.3969 36.2799L20.9156 49.716C21.2914 50.1176 21.7684 50.4108 22.2967 50.5649C22.8249 50.719 23.3851 50.7284 23.9187 50.5921L42.6055 45.8232C43.1064 45.6975 43.5674 45.4468 43.9454 45.0946C44.3233 44.7425 44.6059 44.3003 44.7667 43.8096L50.8433 25.5061C51.0169 24.9835 51.047 24.4241 50.9306 23.8862C50.8142 23.3484 50.5554 22.8519 50.1814 22.4486L37.664 9.01388C37.2882 8.61086 36.8108 8.31649 36.2817 8.16161C35.7527 8.00672 35.1915 7.99703 34.657 8.13355ZM16.7247 15.8789L33.7879 11.5283L28.2433 28.2418L11.1801 32.5924L16.7247 15.8789ZM11.9348 35.5634L28.9214 31.2264L40.1508 43.2788L23.1681 47.6199L11.9348 35.5634ZM42.402 41.1813L31.1779 29.1345L36.6982 12.491L47.9262 24.5419L42.402 41.1813Z" fill="white"/>
  <path d="M73.4 66.6253L56.4769 57.3798C56.0248 57.1304 55.5166 56.9995 55 56.9995C54.4834 56.9995 53.9752 57.1304 53.5231 57.3798L36.6 66.6292C36.1167 66.8932 35.7133 67.2819 35.4318 67.7548C35.1504 68.2277 35.0013 68.7673 35 69.3174V87.6817C35.0013 88.2317 35.1504 88.7714 35.4318 89.2442C35.7133 89.7171 36.1167 90.1058 36.6 90.3699L53.5231 99.6192C53.9752 99.8687 54.4834 99.9995 55 99.9995C55.5166 99.9995 56.0248 99.8687 56.4769 99.6192L73.4 90.3699C73.8833 90.1058 74.2867 89.7171 74.5682 89.2442C74.8496 88.7714 74.9988 88.2317 75 87.6817V69.3193C74.9998 68.7683 74.8511 68.2274 74.5696 67.7534C74.2881 67.2795 73.8841 66.8898 73.4 66.6253ZM55 60.068L70.45 68.5167L55 76.9653L39.55 68.5167L55 60.068ZM38.0769 71.2049L53.4615 79.6113V96.0842L38.0769 87.6836V71.2049ZM56.5385 96.0842V79.619L71.9231 71.2049V87.6759L56.5385 96.0842Z" fill="white"/>
  <path d="M107.845 26.9005L93.3931 14.1326C93.0075 13.7891 92.541 13.5488 92.0373 13.4343C91.5335 13.3197 91.009 13.3346 90.5128 13.4776L71.9601 18.7442C71.4303 18.8945 70.9507 19.1841 70.5714 19.5828C70.1921 19.9815 69.927 20.4746 69.8038 21.0107L65.7318 38.9179C65.611 39.4545 65.6368 40.0138 65.8064 40.5373C65.9759 41.0608 66.2831 41.5293 66.6958 41.8939L81.1467 54.6655C81.5323 55.009 81.9988 55.2493 82.5025 55.3638C83.0063 55.4784 83.5308 55.4635 84.027 55.3205L102.58 50.0539C103.11 49.9036 103.589 49.614 103.968 49.2153C104.348 48.8166 104.613 48.3235 104.736 47.7874L108.808 29.8821C108.93 29.3448 108.905 28.7844 108.735 28.2598C108.566 27.7353 108.258 27.2657 107.845 26.9005ZM91.3569 16.4264L104.549 28.0906L87.6101 32.9031L74.4181 21.2389L91.3569 16.4264ZM72.3856 23.5335L85.5232 35.142L81.8705 51.2049L68.7317 39.602L72.3856 23.5335ZM84.8709 51.8871L88.5218 35.8318L105.389 31.0385L101.737 47.0995L84.8709 51.8871Z" fill="white"/>
</svg>
